STARTFONT 2.1
COMMENT Exported by Fony v1.4.7
FONT Logisoso
SIZE 30 96 96
FONTBOUNDINGBOX 25 29 0 -5
STARTPROPERTIES 6
COPYRIGHT ""
RESOLUTION_X 96
RESOLUTION_Y 96
FONT_ASCENT 25
FONT_DESCENT 5
DEFAULT_CHAR 0
ENDPROPERTIES
CHARS 256
STARTCHAR 000
ENCODING 0
SWIDTH 864 0
DWIDTH 12 0
BBX 0 0 0 0
BITMAP
ENDCHAR
STARTCHAR 001
ENCODING 1
SWIDTH 864 0
DWIDTH 12 0
BBX 7 20 1 0
BITMAP
FE
FE
C6
C6
C6
C6
C6
C6
C6
C6
C6
C6
C6
C6
C6
C6
C6
C6
C6
FE
ENDCHAR
STARTCHAR 002
ENCODING 2
SWIDTH 864 0
DWIDTH 12 0
BBX 0 0 0 0
BITMAP
ENDCHAR
STARTCHAR 003
ENCODING 3
SWIDTH 864 0
DWIDTH 12 0
BBX 7 20 1 0
BITMAP
FE
FE
C6
C6
C6
C6
C6
C6
C6
C6
C6
C6
C6
C6
C6
C6
C6
C6
C6
FE
ENDCHAR
STARTCHAR 004
ENCODING 4
SWIDTH 864 0
DWIDTH 12 0
BBX 7 20 1 0
BITMAP
FE
FE
C6
C6
C6
C6
C6
C6
C6
C6
C6
C6
C6
C6
C6
C6
C6
C6
C6
FE
ENDCHAR
STARTCHAR 005
ENCODING 5
SWIDTH 864 0
DWIDTH 12 0
BBX 7 20 1 0
BITMAP
FE
FE
C6
C6
C6
C6
C6
C6
C6
C6
C6
C6
C6
C6
C6
C6
C6
C6
C6
FE
ENDCHAR
STARTCHAR 006
ENCODING 6
SWIDTH 864 0
DWIDTH 12 0
BBX 7 20 1 0
BITMAP
FE
FE
C6
C6
C6
C6
C6
C6
C6
C6
C6
C6
C6
C6
C6
C6
C6
C6
C6
FE
ENDCHAR
STARTCHAR 007
ENCODING 7
SWIDTH 864 0
DWIDTH 12 0
BBX 7 20 1 0
BITMAP
FE
FE
C6
C6
C6
C6
C6
C6
C6
C6
C6
C6
C6
C6
C6
C6
C6
C6
C6
FE
ENDCHAR
STARTCHAR 008
ENCODING 8
SWIDTH 864 0
DWIDTH 12 0
BBX 7 20 1 0
BITMAP
FE
FE
C6
C6
C6
C6
C6
C6
C6
C6
C6
C6
C6
C6
C6
C6
C6
C6
C6
FE
ENDCHAR
STARTCHAR 009
ENCODING 9
SWIDTH 864 0
DWIDTH 12 0
BBX 0 0 0 0
BITMAP
ENDCHAR
STARTCHAR 010
ENCODING 10
SWIDTH 864 0
DWIDTH 12 0
BBX 0 0 0 0
BITMAP
ENDCHAR
STARTCHAR 011
ENCODING 11
SWIDTH 864 0
DWIDTH 12 0
BBX 7 20 1 0
BITMAP
FE
FE
C6
C6
C6
C6
C6
C6
C6
C6
C6
C6
C6
C6
C6
C6
C6
C6
C6
FE
ENDCHAR
STARTCHAR 012
ENCODING 12
SWIDTH 864 0
DWIDTH 12 0
BBX 9 19 1 0
BITMAP
FF80
C180
C180
C180
C180
C180
C180
C180
C180
C180
C180
C180
C180
C180
C180
C180
C180
C180
FF80
ENDCHAR
STARTCHAR 013
ENCODING 13
SWIDTH 864 0
DWIDTH 12 0
BBX 0 0 0 0
BITMAP
ENDCHAR
STARTCHAR 014
ENCODING 14
SWIDTH 864 0
DWIDTH 12 0
BBX 7 20 1 0
BITMAP
FE
FE
C6
C6
C6
C6
C6
C6
C6
C6
C6
C6
C6
C6
C6
C6
C6
C6
C6
FE
ENDCHAR
STARTCHAR 015
ENCODING 15
SWIDTH 864 0
DWIDTH 12 0
BBX 7 20 1 0
BITMAP
FE
FE
C6
C6
C6
C6
C6
C6
C6
C6
C6
C6
C6
C6
C6
C6
C6
C6
C6
FE
ENDCHAR
STARTCHAR 016
ENCODING 16
SWIDTH 864 0
DWIDTH 12 0
BBX 7 20 1 0
BITMAP
FE
FE
C6
C6
C6
C6
C6
C6
C6
C6
C6
C6
C6
C6
C6
C6
C6
C6
C6
FE
ENDCHAR
STARTCHAR 017
ENCODING 17
SWIDTH 864 0
DWIDTH 12 0
BBX 7 20 1 0
BITMAP
FE
FE
C6
C6
C6
C6
C6
C6
C6
C6
C6
C6
C6
C6
C6
C6
C6
C6
C6
FE
ENDCHAR
STARTCHAR 018
ENCODING 18
SWIDTH 864 0
DWIDTH 12 0
BBX 7 20 1 0
BITMAP
FE
FE
C6
C6
C6
C6
C6
C6
C6
C6
C6
C6
C6
C6
C6
C6
C6
C6
C6
FE
ENDCHAR
STARTCHAR 019
ENCODING 19
SWIDTH 864 0
DWIDTH 12 0
BBX 7 20 1 0
BITMAP
FE
FE
C6
C6
C6
C6
C6
C6
C6
C6
C6
C6
C6
C6
C6
C6
C6
C6
C6
FE
ENDCHAR
STARTCHAR 020
ENCODING 20
SWIDTH 864 0
DWIDTH 12 0
BBX 7 20 1 0
BITMAP
FE
FE
C6
C6
C6
C6
C6
C6
C6
C6
C6
C6
C6
C6
C6
C6
C6
C6
C6
FE
ENDCHAR
STARTCHAR 021
ENCODING 21
SWIDTH 864 0
DWIDTH 12 0
BBX 7 20 1 0
BITMAP
FE
FE
C6
C6
C6
C6
C6
C6
C6
C6
C6
C6
C6
C6
C6
C6
C6
C6
C6
FE
ENDCHAR
STARTCHAR 022
ENCODING 22
SWIDTH 864 0
DWIDTH 12 0
BBX 7 20 1 0
BITMAP
FE
FE
C6
C6
C6
C6
C6
C6
C6
C6
C6
C6
C6
C6
C6
C6
C6
C6
C6
FE
ENDCHAR
STARTCHAR 023
ENCODING 23
SWIDTH 864 0
DWIDTH 12 0
BBX 7 20 1 0
BITMAP
FE
FE
C6
C6
C6
C6
C6
C6
C6
C6
C6
C6
C6
C6
C6
C6
C6
C6
C6
FE
ENDCHAR
STARTCHAR 024
ENCODING 24
SWIDTH 864 0
DWIDTH 12 0
BBX 7 20 1 0
BITMAP
FE
FE
C6
C6
C6
C6
C6
C6
C6
C6
C6
C6
C6
C6
C6
C6
C6
C6
C6
FE
ENDCHAR
STARTCHAR 025
ENCODING 25
SWIDTH 864 0
DWIDTH 12 0
BBX 7 20 1 0
BITMAP
FE
FE
C6
C6
C6
C6
C6
C6
C6
C6
C6
C6
C6
C6
C6
C6
C6
C6
C6
FE
ENDCHAR
STARTCHAR 026
ENCODING 26
SWIDTH 864 0
DWIDTH 12 0
BBX 7 20 1 0
BITMAP
FE
FE
C6
C6
C6
C6
C6
C6
C6
C6
C6
C6
C6
C6
C6
C6
C6
C6
C6
FE
ENDCHAR
STARTCHAR 027
ENCODING 27
SWIDTH 864 0
DWIDTH 12 0
BBX 7 20 1 0
BITMAP
FE
FE
C6
C6
C6
C6
C6
C6
C6
C6
C6
C6
C6
C6
C6
C6
C6
C6
C6
FE
ENDCHAR
STARTCHAR 028
ENCODING 28
SWIDTH 864 0
DWIDTH 12 0
BBX 0 0 0 0
BITMAP
ENDCHAR
STARTCHAR 029
ENCODING 29
SWIDTH 864 0
DWIDTH 12 0
BBX 0 0 0 0
BITMAP
ENDCHAR
STARTCHAR 030
ENCODING 30
SWIDTH 1008 0
DWIDTH 14 0
BBX 0 0 0 0
BITMAP
ENDCHAR
STARTCHAR 031
ENCODING 31
SWIDTH 1008 0
DWIDTH 14 0
BBX 0 0 0 0
BITMAP
ENDCHAR
STARTCHAR 032
ENCODING 32
SWIDTH 1008 0
DWIDTH 14 0
BBX 0 0 0 0
BITMAP
ENDCHAR
STARTCHAR 033
ENCODING 33
SWIDTH 648 0
DWIDTH 9 0
BBX 3 20 3 0
BITMAP
E0
E0
E0
E0
E0
E0
E0
E0
E0
E0
E0
E0
E0
E0
E0
E0
00
00
E0
E0
ENDCHAR
STARTCHAR 034
ENCODING 34
SWIDTH 1008 0
DWIDTH 14 0
BBX 6 3 4 17
BITMAP
FC
FC
CC
ENDCHAR
STARTCHAR 035
ENCODING 35
SWIDTH 1008 0
DWIDTH 14 0
BBX 12 20 1 0
BITMAP
0EF0
1EE0
1EE0
1FE0
1FE0
1FE0
FFF0
FFF0
FFF0
3FC0
3FC0
FFF0
FFF0
FFF0
7B80
7B80
7F80
7F80
7F80
7780
ENDCHAR
STARTCHAR 036
ENCODING 36
SWIDTH 1008 0
DWIDTH 14 0
BBX 12 26 1 -3
BITMAP
0F00
0F00
0F00
1F80
3FC0
79E0
70E0
F0F0
F000
7800
7C00
3E00
1F00
0F80
07C0
01E0
00E0
00F0
F0F0
78E0
7FE0
3FC0
1F80
0F00
0F00
0F00
ENDCHAR
STARTCHAR 037
ENCODING 37
SWIDTH 1008 0
DWIDTH 14 0
BBX 12 20 1 0
BITMAP
7CF0
FDE0
EFE0
7DC0
3BC0
0380
0380
0780
0700
0F00
0F00
0E00
1E00
1C00
1C00
3DC0
3BE0
7B70
7BF0
F3E0
ENDCHAR
STARTCHAR 038
ENCODING 38
SWIDTH 1008 0
DWIDTH 14 0
BBX 12 21 1 0
BITMAP
0600
1F80
3FC0
79E0
79E0
7800
7800
3C00
3C00
7C00
7E00
FE00
FFF0
FFF0
F7F0
F7F0
F3F0
7BE0
7FE0
3FE0
1FF0
ENDCHAR
STARTCHAR 039
ENCODING 39
SWIDTH 648 0
DWIDTH 9 0
BBX 3 3 3 17
BITMAP
E0
E0
C0
ENDCHAR
STARTCHAR 040
ENCODING 40
SWIDTH 1008 0
DWIDTH 14 0
BBX 6 20 4 0
BITMAP
38
3C
78
78
70
F0
F0
E0
E0
E0
E0
E0
E0
F0
F0
70
78
78
3C
38
ENDCHAR
STARTCHAR 041
ENCODING 41
SWIDTH 1008 0
DWIDTH 14 0
BBX 6 20 4 0
BITMAP
70
F0
78
78
38
3C
3C
1C
1C
1C
1C
1C
1C
3C
3C
38
78
78
F0
70
ENDCHAR
STARTCHAR 042
ENCODING 42
SWIDTH 1008 0
DWIDTH 14 0
BBX 10 9 2 14
BITMAP
0C00
6D80
FFC0
7F80
3F00
7FC0
FF80
0C00
0C00
ENDCHAR
STARTCHAR 043
ENCODING 43
SWIDTH 1008 0
DWIDTH 14 0
BBX 8 8 3 4
BITMAP
3C
3C
3C
FF
FF
FF
3C
3C
ENDCHAR
STARTCHAR 044
ENCODING 44
SWIDTH 648 0
DWIDTH 9 0
BBX 4 4 2 -1
BITMAP
60
70
F0
30
ENDCHAR
STARTCHAR 045
ENCODING 45
SWIDTH 1008 0
DWIDTH 14 0
BBX 8 3 3 6
BITMAP
FF
FF
FF
ENDCHAR
STARTCHAR 046
ENCODING 46
SWIDTH 648 0
DWIDTH 9 0
BBX 3 3 3 0
BITMAP
E0
E0
E0
ENDCHAR
STARTCHAR 047
ENCODING 47
SWIDTH 1008 0
DWIDTH 14 0
BBX 10 20 2 0
BITMAP
03C0
03C0
0380
0780
0780
0700
0F00
0F00
0E00
1E00
1E00
1C00
3C00
3C00
3800
7800
7800
F000
F000
F000
ENDCHAR
STARTCHAR 048
ENCODING 48
SWIDTH 1008 0
DWIDTH 14 0
BBX 12 20 1 0
BITMAP
1F80
3FC0
79E0
70E0
F0F0
F0F0
F0F0
F0F0
F0F0
F0F0
F0F0
F0F0
F0F0
F0F0
F0F0
F0F0
78E0
7FE0
3FC0
1F80
ENDCHAR
STARTCHAR 049
ENCODING 49
SWIDTH 1008 0
DWIDTH 14 0
BBX 6 20 4 0
BITMAP
1C
3C
7C
FC
FC
DC
1C
1C
1C
1C
1C
1C
1C
1C
1C
1C
1C
1C
1C
1C
ENDCHAR
STARTCHAR 050
ENCODING 50
SWIDTH 1008 0
DWIDTH 14 0
BBX 12 20 1 0
BITMAP
1F80
3FC0
79E0
70E0
70F0
F0F0
71E0
01E0
03C0
03C0
0780
0F00
0F00
1E00
3C00
3C00
7800
FFF0
FFF0
FFF0
ENDCHAR
STARTCHAR 051
ENCODING 51
SWIDTH 1008 0
DWIDTH 14 0
BBX 12 20 1 0
BITMAP
FFF0
FFF0
01E0
01E0
03C0
0780
0780
0F00
0FC0
0FE0
01E0
00E0
00F0
00F0
00F0
00F0
71E0
7FE0
3FC0
1F80
ENDCHAR
STARTCHAR 052
ENCODING 52
SWIDTH 1008 0
DWIDTH 14 0
BBX 12 20 1 0
BITMAP
0F00
0E00
1E00
1E00
1C00
3C00
3C00
3C00
3800
7800
7B80
7B80
7380
FFF0
FFF0
FFF0
0380
0380
0380
0380
ENDCHAR
STARTCHAR 053
ENCODING 53
SWIDTH 1008 0
DWIDTH 14 0
BBX 12 20 1 0
BITMAP
FFF0
FFF0
F000
F000
F000
F000
FF00
FFC0
FFE0
F9E0
F0F0
00F0
00F0
00F0
00F0
F0F0
78E0
7FE0
3FC0
1F80
ENDCHAR
STARTCHAR 054
ENCODING 54
SWIDTH 1008 0
DWIDTH 14 0
BBX 12 20 1 0
BITMAP
1F80
3FC0
79E0
70E0
F0F0
F000
F000
FF00
FFC0
FFE0
F9E0
F0E0
F0F0
F0F0
F0F0
F0F0
79E0
7FE0
3FC0
1F80
ENDCHAR
STARTCHAR 055
ENCODING 55
SWIDTH 1008 0
DWIDTH 14 0
BBX 12 20 1 0
BITMAP
FFF0
FFF0
F0F0
F1E0
F1E0
01E0
01C0
03C0
03C0
03C0
0780
0780
0780
0780
0F00
0F00
0F00
0F00
1E00
1E00
ENDCHAR
STARTCHAR 056
ENCODING 56
SWIDTH 1008 0
DWIDTH 14 0
BBX 12 20 1 0
BITMAP
1F80
3FC0
79E0
70E0
F0F0
F0F0
70F0
70E0
7FE0
3FC0
3FE0
79E0
70E0
F0F0
F0F0
70F0
78E0
7FE0
3FC0
1F80
ENDCHAR
STARTCHAR 057
ENCODING 57
SWIDTH 1008 0
DWIDTH 14 0
BBX 12 20 1 0
BITMAP
1F80
3FC0
79E0
70E0
F0F0
F0F0
F0F0
F0F0
70F0
79F0
3FF0
1FF0
00F0
00F0
00F0
F0F0
78E0
7FE0
3FC0
1F80
ENDCHAR
STARTCHAR 058
ENCODING 58
SWIDTH 648 0
DWIDTH 9 0
BBX 4 11 2 3
BITMAP
70
F0
00
00
00
00
00
00
00
70
F0
ENDCHAR
STARTCHAR 059
ENCODING 59
SWIDTH 648 0
DWIDTH 9 0
BBX 4 13 2 1
BITMAP
70
F0
00
00
00
00
00
00
00
70
F0
30
60
ENDCHAR
STARTCHAR 060
ENCODING 60
SWIDTH 1008 0
DWIDTH 14 0
BBX 8 13 3 3
BITMAP
03
07
0F
3E
78
F0
E0
F0
7C
1E
0F
07
03
ENDCHAR
STARTCHAR 061
ENCODING 61
SWIDTH 1008 0
DWIDTH 14 0
BBX 10 7 2 3
BITMAP
FFC0
FFC0
0000
0000
FFC0
FFC0
FFC0
ENDCHAR
STARTCHAR 062
ENCODING 62
SWIDTH 1008 0
DWIDTH 14 0
BBX 8 13 3 3
BITMAP
C0
E0
F0
7C
1E
0F
07
0F
3E
78
F0
E0
C0
ENDCHAR
STARTCHAR 063
ENCODING 63
SWIDTH 1008 0
DWIDTH 14 0
BBX 12 21 1 0
BITMAP
0600
3FC0
7FE0
79E0
F0F0
F0F0
00F0
01E0
03E0
07C0
0780
0F00
0F00
0F00
0F00
0F00
0F00
0000
0600
0F00
0E00
ENDCHAR
STARTCHAR 064
ENCODING 64
SWIDTH 1584 0
DWIDTH 22 0
BBX 19 24 1 -5
BITMAP
03FC00
0FFF00
1F9F80
3E07C0
7C03C0
79FDE0
73FDE0
F3FCE0
F39CE0
F39CE0
F39CE0
F39CE0
F39CE0
F39CE0
F39CE0
F39CE0
F3FFE0
73FFE0
79F780
7C0000
3E0000
1F8000
0FFF80
03FF80
ENDCHAR
STARTCHAR 065
ENCODING 65
SWIDTH 1008 0
DWIDTH 14 0
BBX 12 20 1 0
BITMAP
0F00
0F00
0F00
0F00
1F80
1F80
1F80
1F80
1F80
3FC0
3FC0
3FC0
39C0
39C0
3FE0
7FE0
79E0
70E0
70E0
F0F0
ENDCHAR
STARTCHAR 066
ENCODING 66
SWIDTH 1008 0
DWIDTH 14 0
BBX 12 20 1 0
BITMAP
FF80
FFC0
F3E0
F1E0
F0E0
F0E0
F1E0
F3E0
FFC0
FFC0
F7E0
F1E0
F0E0
F0F0
F0F0
F0E0
F1E0
FFC0
FFC0
FF00
ENDCHAR
STARTCHAR 067
ENCODING 67
SWIDTH 1008 0
DWIDTH 14 0
BBX 12 20 1 0
BITMAP
1F80
3FC0
79E0
70E0
F0F0
F000
F000
F000
F000
F000
F000
F000
F000
F000
F000
F0F0
79E0
7FE0
3FC0
1F80
ENDCHAR
STARTCHAR 068
ENCODING 68
SWIDTH 1008 0
DWIDTH 14 0
BBX 12 20 1 0
BITMAP
FF80
FFC0
F1E0
F0E0
F0F0
F0F0
F0F0
F0F0
F0F0
F0F0
F0F0
F0F0
F0F0
F0F0
F0F0
F0F0
F0E0
FFE0
FFC0
FF80
ENDCHAR
STARTCHAR 069
ENCODING 69
SWIDTH 1008 0
DWIDTH 14 0
BBX 12 20 1 0
BITMAP
FFF0
FFF0
F000
F000
F000
F000
F000
F000
F000
FF80
FF80
F000
F000
F000
F000
F000
F000
FFF0
FFF0
FFF0
ENDCHAR
STARTCHAR 070
ENCODING 70
SWIDTH 1008 0
DWIDTH 14 0
BBX 12 20 1 0
BITMAP
FFF0
FFF0
F000
F000
F000
F000
F000
F000
F000
FF80
FF80
F000
F000
F000
F000
F000
F000
F000
F000
F000
ENDCHAR
STARTCHAR 071
ENCODING 71
SWIDTH 1008 0
DWIDTH 14 0
BBX 12 20 1 0
BITMAP
1F80
3FC0
79E0
70E0
F0F0
F000
F000
F000
F000
F3F0
F3F0
F3F0
F0F0
F0F0
F0F0
F0F0
79F0
7FF0
3FF0
1FF0
ENDCHAR
STARTCHAR 072
ENCODING 72
SWIDTH 1008 0
DWIDTH 14 0
BBX 12 20 1 0
BITMAP
F0F0
F0F0
F0F0
F0F0
F0F0
F0F0
F0F0
F0F0
F0F0
FFF0
FFF0
F0F0
F0F0
F0F0
F0F0
F0F0
F0F0
F0F0
F0F0
F0F0
ENDCHAR
STARTCHAR 073
ENCODING 73
SWIDTH 648 0
DWIDTH 9 0
BBX 3 20 3 0
BITMAP
E0
E0
E0
E0
E0
E0
E0
E0
E0
E0
E0
E0
E0
E0
E0
E0
E0
E0
E0
E0
ENDCHAR
STARTCHAR 074
ENCODING 74
SWIDTH 1008 0
DWIDTH 14 0
BBX 12 20 1 0
BITMAP
00F0
00F0
00F0
00F0
00F0
00F0
00F0
00F0
00F0
00F0
00F0
00F0
00F0
00F0
00F0
F0F0
78E0
7FE0
3FC0
1F80
ENDCHAR
STARTCHAR 075
ENCODING 75
SWIDTH 1008 0
DWIDTH 14 0
BBX 11 20 2 0
BITMAP
E3E0
E3C0
E780
EF00
EF00
FE00
FE00
FC00
F800
F800
F800
F800
FC00
FE00
FE00
EF00
E780
E780
E3C0
E3E0
ENDCHAR
STARTCHAR 076
ENCODING 76
SWIDTH 1008 0
DWIDTH 14 0
BBX 12 20 1 0
BITMAP
F000
F000
F000
F000
F000
F000
F000
F000
F000
F000
F000
F000
F000
F000
F000
F000
F000
FFF0
FFF0
FFF0
ENDCHAR
STARTCHAR 077
ENCODING 77
SWIDTH 1008 0
DWIDTH 14 0
BBX 12 20 1 0
BITMAP
F0F0
F9F0
F9F0
F9F0
FFF0
FFF0
FFF0
FFF0
FFF0
FFF0
FFF0
FFF0
F6F0
F6F0
F6F0
F0F0
F0F0
F0F0
F0F0
F0F0
ENDCHAR
STARTCHAR 078
ENCODING 78
SWIDTH 1008 0
DWIDTH 14 0
BBX 12 20 1 0
BITMAP
F0F0
F8F0
F8F0
F8F0
FCF0
FCF0
FEF0
FEF0
FEF0
FFF0
FFF0
F7F0
F7F0
F3F0
F3F0
F3F0
F1F0
F1F0
F1F0
F0F0
ENDCHAR
STARTCHAR 079
ENCODING 79
SWIDTH 1008 0
DWIDTH 14 0
BBX 12 20 1 0
BITMAP
1F80
3FC0
79E0
70E0
F0F0
F0F0
F0F0
F0F0
F0F0
F0F0
F0F0
F0F0
F0F0
F0F0
F0F0
F0F0
78E0
7FE0
3FC0
1F80
ENDCHAR
STARTCHAR 080
ENCODING 80
SWIDTH 1008 0
DWIDTH 14 0
BBX 12 20 1 0
BITMAP
FF80
FFC0
F3E0
F1E0
F0E0
F0F0
F0F0
F0E0
F1E0
FFC0
FF80
FF00
F000
F000
F000
F000
F000
F000
F000
F000
ENDCHAR
STARTCHAR 081
ENCODING 81
SWIDTH 1008 0
DWIDTH 14 0
BBX 12 20 1 0
BITMAP
1F80
3FC0
79E0
70E0
F0F0
F0F0
F0F0
F0F0
F0F0
F0F0
F0F0
F0F0
F0F0
F0F0
F0F0
F0F0
78E0
7FE0
3FE0
1FF0
ENDCHAR
STARTCHAR 082
ENCODING 82
SWIDTH 1008 0
DWIDTH 14 0
BBX 12 20 1 0
BITMAP
FF00
FFC0
F3E0
F1E0
F0E0
F0F0
F0F0
F0E0
F1E0
FFC0
FF80
FF80
F780
F380
F3C0
F3C0
F1C0
F1E0
F1E0
F0F0
ENDCHAR
STARTCHAR 083
ENCODING 83
SWIDTH 1008 0
DWIDTH 14 0
BBX 12 20 1 0
BITMAP
1F80
3FC0
79E0
70E0
F0F0
F000
7800
7C00
3E00
1F00
0F80
07C0
01E0
00E0
00F0
F0F0
78E0
7FE0
3FC0
1F80
ENDCHAR
STARTCHAR 084
ENCODING 84
SWIDTH 1008 0
DWIDTH 14 0
BBX 12 20 1 0
BITMAP
FFF0
FFF0
0F00
0F00
0F00
0F00
0F00
0F00
0F00
0F00
0F00
0F00
0F00
0F00
0F00
0F00
0F00
0F00
0F00
0F00
ENDCHAR
STARTCHAR 085
ENCODING 85
SWIDTH 1008 0
DWIDTH 14 0
BBX 12 20 1 0
BITMAP
F0F0
F0F0
F0F0
F0F0
F0F0
F0F0
F0F0
F0F0
F0F0
F0F0
F0F0
F0F0
F0F0
F0F0
F0F0
F0F0
78E0
7FE0
3FC0
1F80
ENDCHAR
STARTCHAR 086
ENCODING 86
SWIDTH 1008 0
DWIDTH 14 0
BBX 12 20 1 0
BITMAP
F0F0
70E0
78E0
79E0
79E0
39E0
39C0
3DC0
3DC0
3FC0
1FC0
1FC0
1F80
1F80
1F80
0F80
0F80
0F00
0F00
0F00
ENDCHAR
STARTCHAR 087
ENCODING 87
SWIDTH 1008 0
DWIDTH 14 0
BBX 12 20 1 0
BITMAP
F0F0
70E0
70E0
70E0
70E0
70E0
70E0
76E0
7EE0
7FE0
7FE0
7FE0
7FE0
7FE0
7FE0
7FE0
3FE0
3FC0
3FC0
39C0
ENDCHAR
STARTCHAR 088
ENCODING 88
SWIDTH 1008 0
DWIDTH 14 0
BBX 11 20 2 0
BITMAP
E1E0
F3C0
F3C0
7380
7B80
7F80
7F80
3F00
3F00
3F00
3F00
3F00
3F00
7F80
7F80
7380
F3C0
F3C0
F3C0
E1E0
ENDCHAR
STARTCHAR 089
ENCODING 89
SWIDTH 1008 0
DWIDTH 14 0
BBX 11 20 2 0
BITMAP
E1E0
F3C0
F3C0
F380
7780
7F80
7F00
3F00
3E00
3E00
3E00
1C00
3C00
3C00
7800
7800
7000
F000
F000
E000
ENDCHAR
STARTCHAR 090
ENCODING 90
SWIDTH 1008 0
DWIDTH 14 0
BBX 12 20 1 0
BITMAP
FFF0
FFF0
00E0
01E0
01E0
03C0
03C0
0780
0780
0F00
0F00
1E00
1E00
3C00
3C00
7800
7800
FFF0
FFF0
FFF0
ENDCHAR
STARTCHAR 091
ENCODING 91
SWIDTH 1008 0
DWIDTH 14 0
BBX 6 20 4 0
BITMAP
FC
FC
E0
E0
E0
E0
E0
E0
E0
E0
E0
E0
E0
E0
E0
E0
E0
FC
FC
FC
ENDCHAR
STARTCHAR 092
ENCODING 92
SWIDTH 1008 0
DWIDTH 14 0
BBX 11 20 2 0
BITMAP
F000
F000
7000
7800
7800
3C00
3C00
3C00
1E00
1E00
0E00
0F00
0F00
0700
0780
0780
0380
03C0
03C0
01E0
ENDCHAR
STARTCHAR 093
ENCODING 93
SWIDTH 1008 0
DWIDTH 14 0
BBX 6 20 4 0
BITMAP
FC
FC
1C
1C
1C
1C
1C
1C
1C
1C
1C
1C
1C
1C
1C
1C
1C
FC
FC
FC
ENDCHAR
STARTCHAR 094
ENCODING 94
SWIDTH 1008 0
DWIDTH 14 0
BBX 9 4 2 21
BITMAP
1E00
3F00
7F80
F380
ENDCHAR
STARTCHAR 095
ENCODING 95
SWIDTH 1008 0
DWIDTH 14 0
BBX 14 2 0 -2
BITMAP
FFFC
FFFC
ENDCHAR
STARTCHAR 096
ENCODING 96
SWIDTH 1008 0
DWIDTH 14 0
BBX 6 4 4 19
BITMAP
F0
78
38
1C
ENDCHAR
STARTCHAR 097
ENCODING 97
SWIDTH 1080 0
DWIDTH 15 0
BBX 13 15 1 0
BITMAP
1FC0
3FE0
79E0
78F0
78F0
00F0
1FF0
3FF0
7FF0
F0F0
F0F0
F0F0
7FF8
3FF8
1FB8
ENDCHAR
STARTCHAR 098
ENCODING 98
SWIDTH 1008 0
DWIDTH 14 0
BBX 12 21 1 0
BITMAP
F000
F000
F000
F000
F000
F000
FF80
FFE0
F9E0
F0F0
F0F0
F0F0
F0F0
F0F0
F0F0
F0F0
F0F0
F8E0
FFE0
FFC0
FF80
ENDCHAR
STARTCHAR 099
ENCODING 99
SWIDTH 1008 0
DWIDTH 14 0
BBX 12 15 1 0
BITMAP
1F80
3FE0
79E0
70F0
F0F0
F000
F000
F000
F000
F000
F0F0
79E0
7FE0
3FC0
1F80
ENDCHAR
STARTCHAR 100
ENCODING 100
SWIDTH 1008 0
DWIDTH 14 0
BBX 12 21 1 0
BITMAP
00F0
00F0
00F0
00F0
00F0
00F0
1FF0
3FF0
79F0
70F0
F0F0
F0F0
F0F0
F0F0
F0F0
F0F0
F0F0
79F0
7FF0
3FF0
1FF0
ENDCHAR
STARTCHAR 101
ENCODING 101
SWIDTH 1008 0
DWIDTH 14 0
BBX 12 15 1 0
BITMAP
1F80
3FE0
79E0
70F0
F0F0
F0F0
FFF0
FFF0
FFF0
F000
F000
78E0
7FE0
3FC0
1F80
ENDCHAR
STARTCHAR 102
ENCODING 102
SWIDTH 1008 0
DWIDTH 14 0
BBX 12 21 1 0
BITMAP
0380
0FC0
1FE0
1EF0
1E00
1E00
1E00
1E00
FFC0
FFC0
FFC0
1E00
1E00
1E00
1E00
1E00
1E00
1E00
1E00
1E00
1E00
ENDCHAR
STARTCHAR 103
ENCODING 103
SWIDTH 1008 0
DWIDTH 14 0
BBX 12 20 1 -5
BITMAP
1FF0
3FF0
79E0
70F0
F0F0
F0F0
79E0
7FE0
3FC0
3F00
3800
3800
3F80
3FC0
7FE0
F0F0
F0F0
79E0
7FE0
3FC0
ENDCHAR
STARTCHAR 104
ENCODING 104
SWIDTH 1008 0
DWIDTH 14 0
BBX 12 21 1 0
BITMAP
F000
F000
F000
F000
F000
F000
FF80
FFE0
F9E0
F0F0
F0F0
F0F0
F0F0
F0F0
F0F0
F0F0
F0F0
F0F0
F0F0
F0F0
F0F0
ENDCHAR
STARTCHAR 105
ENCODING 105
SWIDTH 648 0
DWIDTH 9 0
BBX 5 21 2 0
BITMAP
60
E0
E0
00
00
00
E0
E0
E0
E0
E0
E0
E0
E0
E0
E0
E0
E0
F8
78
38
ENDCHAR
STARTCHAR 106
ENCODING 106
SWIDTH 1008 0
DWIDTH 14 0
BBX 8 26 3 -5
BITMAP
06
07
07
00
00
00
07
07
07
07
07
07
07
07
07
07
07
07
07
07
07
07
E7
FF
FF
7E
ENDCHAR
STARTCHAR 107
ENCODING 107
SWIDTH 1008 0
DWIDTH 14 0
BBX 12 21 1 0
BITMAP
F000
F000
F000
F000
F000
F000
F1F0
F1E0
F3C0
F780
F780
FF00
FF00
FE00
FF00
FF00
FF80
FBC0
F3C0
F1E0
F1F0
ENDCHAR
STARTCHAR 108
ENCODING 108
SWIDTH 648 0
DWIDTH 9 0
BBX 7 21 1 0
BITMAP
F0
F0
F0
F0
F0
F0
F0
F0
F0
F0
F0
F0
F0
F0
F0
F0
F0
F0
7E
7E
3E
ENDCHAR
STARTCHAR 109
ENCODING 109
SWIDTH 1584 0
DWIDTH 22 0
BBX 19 15 1 0
BITMAP
FFBF80
FFFFC0
F9F9E0
F0F1E0
F0F0E0
F0F0E0
F0F0E0
F0F0E0
F0F0E0
F0F0E0
F0F0E0
F0F0E0
F0F0E0
F0F0E0
F0F0E0
ENDCHAR
STARTCHAR 110
ENCODING 110
SWIDTH 1008 0
DWIDTH 14 0
BBX 12 15 1 0
BITMAP
FF80
FFE0
F9E0
F0F0
F0F0
F0F0
F0F0
F0F0
F0F0
F0F0
F0F0
F0F0
F0F0
F0F0
F0F0
ENDCHAR
STARTCHAR 111
ENCODING 111
SWIDTH 1008 0
DWIDTH 14 0
BBX 12 15 1 0
BITMAP
1F80
3FE0
79E0
70F0
F0F0
F0F0
F0F0
F0F0
F0F0
F0F0
F0F0
79E0
7FE0
3FC0
1F80
ENDCHAR
STARTCHAR 112
ENCODING 112
SWIDTH 1008 0
DWIDTH 14 0
BBX 12 20 1 -5
BITMAP
FF80
FFE0
F9E0
F0F0
F0F0
F0F0
F0F0
F0F0
F0F0
F0F0
F0F0
F8E0
FFE0
FFC0
FF80
F000
F000
F000
F000
F000
ENDCHAR
STARTCHAR 113
ENCODING 113
SWIDTH 1008 0
DWIDTH 14 0
BBX 12 20 1 -5
BITMAP
1FF0
3FF0
79F0
70F0
F0F0
F0F0
F0F0
F0F0
F0F0
F0F0
F0F0
78F0
7FF0
3FF0
1FF0
00F0
00F0
00F0
00F0
00F0
ENDCHAR
STARTCHAR 114
ENCODING 114
SWIDTH 792 0
DWIDTH 11 0
BBX 9 15 1 0
BITMAP
FF80
FF80
FF80
F000
F000
F000
F000
F000
F000
F000
F000
F000
F000
F000
F000
ENDCHAR
STARTCHAR 115
ENCODING 115
SWIDTH 936 0
DWIDTH 13 0
BBX 10 15 1 0
BITMAP
3F80
7FC0
7BC0
F1C0
F1C0
7800
7F00
3F80
0FC0
01C0
F1C0
F1C0
7FC0
3F80
1F00
ENDCHAR
STARTCHAR 116
ENCODING 116
SWIDTH 648 0
DWIDTH 9 0
BBX 7 21 1 0
BITMAP
78
78
78
78
78
78
FE
FE
78
78
78
78
78
78
78
78
78
78
7E
3E
1E
ENDCHAR
STARTCHAR 117
ENCODING 117
SWIDTH 1008 0
DWIDTH 14 0
BBX 12 15 1 0
BITMAP
F0F0
F0F0
F0F0
F0F0
F0F0
F0F0
F0F0
F0F0
F0F0
F0F0
F0F0
78F0
7FF0
3FF0
1FF0
ENDCHAR
STARTCHAR 118
ENCODING 118
SWIDTH 1008 0
DWIDTH 14 0
BBX 12 15 1 0
BITMAP
F0F0
70E0
78E0
79E0
79E0
39C0
39C0
3DC0
3FC0
3FC0
1F80
1F80
1F80
1F80
1F80
ENDCHAR
STARTCHAR 119
ENCODING 119
SWIDTH 1584 0
DWIDTH 22 0
BBX 19 15 1 0
BITMAP
F0F0E0
70F1E0
79F1E0
79F1E0
79F9C0
39F9C0
39FBC0
3BFBC0
3FFBC0
3FFF80
1FBF80
1FBF80
1F9F80
1F9F80
1F9F00
ENDCHAR
STARTCHAR 120
ENCODING 120
SWIDTH 1008 0
DWIDTH 14 0
BBX 12 15 1 0
BITMAP
F0F0
79E0
39C0
3FC0
1F80
1F80
0F00
0F00
0F00
1F80
1F80
3FC0
39C0
79E0
F0F0
ENDCHAR
STARTCHAR 121
ENCODING 121
SWIDTH 1008 0
DWIDTH 14 0
BBX 12 20 1 -5
BITMAP
78F0
38E0
3DE0
3DE0
3DE0
1DC0
1DC0
1FC0
1FC0
1FC0
0F80
0F80
0F80
0F80
0F80
0700
0700
3F00
7F00
FE00
ENDCHAR
STARTCHAR 122
ENCODING 122
SWIDTH 1008 0
DWIDTH 14 0
BBX 12 15 1 0
BITMAP
FFF0
FFF0
01E0
01E0
03C0
0780
0F80
0F00
1E00
3E00
3C00
7800
FFF0
FFF0
FFF0
ENDCHAR
STARTCHAR 123
ENCODING 123
SWIDTH 1008 0
DWIDTH 14 0
BBX 8 23 3 -2
BITMAP
07
0F
1E
1C
3C
3C
3C
3C
3C
3C
78
F0
F0
38
3C
3C
3C
3C
3C
3C
1E
1F
0F
ENDCHAR
STARTCHAR 124
ENCODING 124
SWIDTH 1008 0
DWIDTH 14 0
BBX 4 26 5 -3
BITMAP
F0
F0
F0
F0
F0
F0
F0
F0
F0
F0
F0
F0
F0
F0
F0
F0
F0
F0
F0
F0
F0
F0
F0
F0
F0
F0
ENDCHAR
STARTCHAR 125
ENCODING 125
SWIDTH 1008 0
DWIDTH 14 0
BBX 8 23 3 -2
BITMAP
E0
F0
78
3C
3C
3C
3C
3C
3C
1C
1E
0F
0F
1E
3C
3C
3C
3C
3C
3C
38
F8
F0
ENDCHAR
STARTCHAR 126
ENCODING 126
SWIDTH 1008 0
DWIDTH 14 0
BBX 12 4 1 6
BITMAP
6000
FFE0
7FF0
3EF0
ENDCHAR
STARTCHAR 127
ENCODING 127
SWIDTH 1008 0
DWIDTH 14 0
BBX 0 0 0 0
BITMAP
ENDCHAR
STARTCHAR 128
ENCODING 128
SWIDTH 0 0
DWIDTH 0 0
BBX 0 0 0 0
BITMAP
ENDCHAR
STARTCHAR 129
ENCODING 129
SWIDTH 0 0
DWIDTH 0 0
BBX 0 0 0 0
BITMAP
ENDCHAR
STARTCHAR 130
ENCODING 130
SWIDTH 0 0
DWIDTH 0 0
BBX 0 0 0 0
BITMAP
ENDCHAR
STARTCHAR 131
ENCODING 131
SWIDTH 0 0
DWIDTH 0 0
BBX 0 0 0 0
BITMAP
ENDCHAR
STARTCHAR 132
ENCODING 132
SWIDTH 0 0
DWIDTH 0 0
BBX 0 0 0 0
BITMAP
ENDCHAR
STARTCHAR 133
ENCODING 133
SWIDTH 0 0
DWIDTH 0 0
BBX 0 0 0 0
BITMAP
ENDCHAR
STARTCHAR 134
ENCODING 134
SWIDTH 0 0
DWIDTH 0 0
BBX 0 0 0 0
BITMAP
ENDCHAR
STARTCHAR 135
ENCODING 135
SWIDTH 0 0
DWIDTH 0 0
BBX 0 0 0 0
BITMAP
ENDCHAR
STARTCHAR 136
ENCODING 136
SWIDTH 0 0
DWIDTH 0 0
BBX 0 0 0 0
BITMAP
ENDCHAR
STARTCHAR 137
ENCODING 137
SWIDTH 0 0
DWIDTH 0 0
BBX 0 0 0 0
BITMAP
ENDCHAR
STARTCHAR 138
ENCODING 138
SWIDTH 0 0
DWIDTH 0 0
BBX 0 0 0 0
BITMAP
ENDCHAR
STARTCHAR 139
ENCODING 139
SWIDTH 0 0
DWIDTH 0 0
BBX 0 0 0 0
BITMAP
ENDCHAR
STARTCHAR 140
ENCODING 140
SWIDTH 0 0
DWIDTH 0 0
BBX 0 0 0 0
BITMAP
ENDCHAR
STARTCHAR 141
ENCODING 141
SWIDTH 0 0
DWIDTH 0 0
BBX 0 0 0 0
BITMAP
ENDCHAR
STARTCHAR 142
ENCODING 142
SWIDTH 0 0
DWIDTH 0 0
BBX 0 0 0 0
BITMAP
ENDCHAR
STARTCHAR 143
ENCODING 143
SWIDTH 0 0
DWIDTH 0 0
BBX 0 0 0 0
BITMAP
ENDCHAR
STARTCHAR 144
ENCODING 144
SWIDTH 0 0
DWIDTH 0 0
BBX 0 0 0 0
BITMAP
ENDCHAR
STARTCHAR 145
ENCODING 145
SWIDTH 0 0
DWIDTH 0 0
BBX 0 0 0 0
BITMAP
ENDCHAR
STARTCHAR 146
ENCODING 146
SWIDTH 0 0
DWIDTH 0 0
BBX 0 0 0 0
BITMAP
ENDCHAR
STARTCHAR 147
ENCODING 147
SWIDTH 0 0
DWIDTH 0 0
BBX 0 0 0 0
BITMAP
ENDCHAR
STARTCHAR 148
ENCODING 148
SWIDTH 0 0
DWIDTH 0 0
BBX 0 0 0 0
BITMAP
ENDCHAR
STARTCHAR 149
ENCODING 149
SWIDTH 0 0
DWIDTH 0 0
BBX 0 0 0 0
BITMAP
ENDCHAR
STARTCHAR 150
ENCODING 150
SWIDTH 0 0
DWIDTH 0 0
BBX 0 0 0 0
BITMAP
ENDCHAR
STARTCHAR 151
ENCODING 151
SWIDTH 0 0
DWIDTH 0 0
BBX 0 0 0 0
BITMAP
ENDCHAR
STARTCHAR 152
ENCODING 152
SWIDTH 0 0
DWIDTH 0 0
BBX 0 0 0 0
BITMAP
ENDCHAR
STARTCHAR 153
ENCODING 153
SWIDTH 0 0
DWIDTH 0 0
BBX 0 0 0 0
BITMAP
ENDCHAR
STARTCHAR 154
ENCODING 154
SWIDTH 0 0
DWIDTH 0 0
BBX 0 0 0 0
BITMAP
ENDCHAR
STARTCHAR 155
ENCODING 155
SWIDTH 0 0
DWIDTH 0 0
BBX 0 0 0 0
BITMAP
ENDCHAR
STARTCHAR 156
ENCODING 156
SWIDTH 0 0
DWIDTH 0 0
BBX 0 0 0 0
BITMAP
ENDCHAR
STARTCHAR 157
ENCODING 157
SWIDTH 0 0
DWIDTH 0 0
BBX 0 0 0 0
BITMAP
ENDCHAR
STARTCHAR 158
ENCODING 158
SWIDTH 0 0
DWIDTH 0 0
BBX 0 0 0 0
BITMAP
ENDCHAR
STARTCHAR 159
ENCODING 159
SWIDTH 0 0
DWIDTH 0 0
BBX 0 0 0 0
BITMAP
ENDCHAR
STARTCHAR 160
ENCODING 160
SWIDTH 1008 0
DWIDTH 14 0
BBX 0 0 0 0
BITMAP
ENDCHAR
STARTCHAR 161
ENCODING 161
SWIDTH 1008 0
DWIDTH 14 0
BBX 0 0 0 0
BITMAP
ENDCHAR
STARTCHAR 162
ENCODING 162
SWIDTH 1008 0
DWIDTH 14 0
BBX 0 0 0 0
BITMAP
ENDCHAR
STARTCHAR 163
ENCODING 163
SWIDTH 1008 0
DWIDTH 14 0
BBX 12 21 1 0
BITMAP
0700
1FC0
3FE0
3DE0
38F0
3800
3800
3800
3800
FF00
FF00
FF00
3800
3800
3800
3800
3800
3800
FFF0
FFF0
FFF0
ENDCHAR
STARTCHAR 164
ENCODING 164
SWIDTH 1008 0
DWIDTH 14 0
BBX 0 0 0 0
BITMAP
ENDCHAR
STARTCHAR 165
ENCODING 165
SWIDTH 1008 0
DWIDTH 14 0
BBX 0 0 0 0
BITMAP
ENDCHAR
STARTCHAR 166
ENCODING 166
SWIDTH 1008 0
DWIDTH 14 0
BBX 0 0 0 0
BITMAP
ENDCHAR
STARTCHAR 167
ENCODING 167
SWIDTH 1800 0
DWIDTH 25 0
BBX 22 15 1 0
BITMAP
03C1F0
0781C0
0783E0
0FC7E0
1FE7F0
1FEFF0
3CFF78
3CFE3C
787C3C
787C1C
F87E1C
FC7E3C
FFFFF8
DFEFF8
CFC3E0
ENDCHAR
STARTCHAR 168
ENCODING 168
SWIDTH 1008 0
DWIDTH 14 0
BBX 0 0 0 0
BITMAP
ENDCHAR
STARTCHAR 169
ENCODING 169
SWIDTH 1584 0
DWIDTH 22 0
BBX 19 21 1 0
BITMAP
00C000
07FE00
0FFF00
1F0F80
3C07C0
79FBC0
7BFDE0
77FCE0
F79EE0
F01EE0
F01EE0
F01EE0
F79EE0
779EE0
73FDE0
79F9E0
3CC3C0
3E07C0
1FFF80
0FFE00
03F800
ENDCHAR
STARTCHAR 170
ENCODING 170
SWIDTH 1008 0
DWIDTH 14 0
BBX 0 0 0 0
BITMAP
ENDCHAR
STARTCHAR 171
ENCODING 171
SWIDTH 1008 0
DWIDTH 14 0
BBX 10 11 2 4
BITMAP
0CC0
1CC0
7FC0
F780
EF00
CE00
FF00
7FC0
3DC0
1CC0
0CC0
ENDCHAR
STARTCHAR 172
ENCODING 172
SWIDTH 1008 0
DWIDTH 14 0
BBX 0 0 0 0
BITMAP
ENDCHAR
STARTCHAR 173
ENCODING 173
SWIDTH 1008 0
DWIDTH 14 0
BBX 0 0 0 0
BITMAP
ENDCHAR
STARTCHAR 174
ENCODING 174
SWIDTH 1008 0
DWIDTH 14 0
BBX 0 0 0 0
BITMAP
ENDCHAR
STARTCHAR 175
ENCODING 175
SWIDTH 1008 0
DWIDTH 14 0
BBX 0 0 0 0
BITMAP
ENDCHAR
STARTCHAR 176
ENCODING 176
SWIDTH 648 0
DWIDTH 9 0
BBX 5 4 2 19
BITMAP
F0
F8
D8
F0
ENDCHAR
STARTCHAR 177
ENCODING 177
SWIDTH 1008 0
DWIDTH 14 0
BBX 0 0 0 0
BITMAP
ENDCHAR
STARTCHAR 178
ENCODING 178
SWIDTH 1008 0
DWIDTH 14 0
BBX 0 0 0 0
BITMAP
ENDCHAR
STARTCHAR 179
ENCODING 179
SWIDTH 1008 0
DWIDTH 14 0
BBX 0 0 0 0
BITMAP
ENDCHAR
STARTCHAR 180
ENCODING 180
SWIDTH 1008 0
DWIDTH 14 0
BBX 0 0 0 0
BITMAP
ENDCHAR
STARTCHAR 181
ENCODING 181
SWIDTH 1008 0
DWIDTH 14 0
BBX 12 19 1 -4
BITMAP
F0F0
F0F0
F0F0
F0F0
F0F0
F0F0
F0F0
F0F0
F0F0
F0F0
F0F0
F8F0
FFF0
FFF0
FFF0
F000
F000
F000
F000
ENDCHAR
STARTCHAR 182
ENCODING 182
SWIDTH 1008 0
DWIDTH 14 0
BBX 0 0 0 0
BITMAP
ENDCHAR
STARTCHAR 183
ENCODING 183
SWIDTH 1008 0
DWIDTH 14 0
BBX 0 0 0 0
BITMAP
ENDCHAR
STARTCHAR 184
ENCODING 184
SWIDTH 1008 0
DWIDTH 14 0
BBX 0 0 0 0
BITMAP
ENDCHAR
STARTCHAR 185
ENCODING 185
SWIDTH 1008 0
DWIDTH 14 0
BBX 0 0 0 0
BITMAP
ENDCHAR
STARTCHAR 186
ENCODING 186
SWIDTH 1008 0
DWIDTH 14 0
BBX 0 0 0 0
BITMAP
ENDCHAR
STARTCHAR 187
ENCODING 187
SWIDTH 1008 0
DWIDTH 14 0
BBX 10 11 2 4
BITMAP
CC00
CE00
FF80
7BC0
3DC0
1CC0
3DC0
FFC0
EF00
CE00
CC00
ENDCHAR
STARTCHAR 188
ENCODING 188
SWIDTH 1008 0
DWIDTH 14 0
BBX 0 0 0 0
BITMAP
ENDCHAR
STARTCHAR 189
ENCODING 189
SWIDTH 1008 0
DWIDTH 14 0
BBX 0 0 0 0
BITMAP
ENDCHAR
STARTCHAR 190
ENCODING 190
SWIDTH 1008 0
DWIDTH 14 0
BBX 0 0 0 0
BITMAP
ENDCHAR
STARTCHAR 191
ENCODING 191
SWIDTH 1008 0
DWIDTH 14 0
BBX 0 0 0 0
BITMAP
ENDCHAR
STARTCHAR 192
ENCODING 192
SWIDTH 1008 0
DWIDTH 14 0
BBX 12 25 1 0
BITMAP
1E00
0E00
0700
0380
0000
0F00
0F00
0F00
0F80
1F80
1F80
1F80
1F80
1F80
3FC0
3FC0
3FC0
39C0
39C0
7FE0
7FE0
79E0
70E0
70E0
F0F0
ENDCHAR
STARTCHAR 193
ENCODING 193
SWIDTH 1008 0
DWIDTH 14 0
BBX 12 25 1 0
BITMAP
0380
0700
0F00
0E00
1800
0F00
0F00
0F00
0F80
1F80
1F80
1F80
1F80
1F80
3FC0
3FC0
3FC0
39C0
39C0
7FE0
7FE0
79E0
70E0
70E0
F0F0
ENDCHAR
STARTCHAR 194
ENCODING 194
SWIDTH 1008 0
DWIDTH 14 0
BBX 12 25 1 0
BITMAP
0F00
0F80
1F80
39C0
0000
0F00
0F00
0F00
0F80
1F80
1F80
1F80
1F80
1F80
3FC0
3FC0
3FC0
39C0
39C0
7FE0
7FE0
79E0
70E0
70E0
F0F0
ENDCHAR
STARTCHAR 195
ENCODING 195
SWIDTH 1008 0
DWIDTH 14 0
BBX 0 0 0 0
BITMAP
ENDCHAR
STARTCHAR 196
ENCODING 196
SWIDTH 1008 0
DWIDTH 14 0
BBX 12 25 1 0
BITMAP
1980
1F80
1F80
0000
0000
0F00
0F00
0F00
0F80
1F80
1F80
1F80
1F80
1F80
3FC0
3FC0
3FC0
39C0
39C0
7FE0
7FE0
79E0
70E0
70E0
F0F0
ENDCHAR
STARTCHAR 197
ENCODING 197
SWIDTH 1008 0
DWIDTH 14 0
BBX 0 0 0 0
BITMAP
ENDCHAR
STARTCHAR 198
ENCODING 198
SWIDTH 1008 0
DWIDTH 14 0
BBX 14 20 0 0
BITMAP
07FC
0FFC
0FFC
0FC0
1FC0
1FC0
1DC0
3DC0
3DFC
39FC
79FC
79C0
71C0
FFC0
FFC0
FFC0
E1C0
E1FC
C1FC
C1FC
ENDCHAR
STARTCHAR 199
ENCODING 199
SWIDTH 1008 0
DWIDTH 14 0
BBX 0 0 0 0
BITMAP
ENDCHAR
STARTCHAR 200
ENCODING 200
SWIDTH 1008 0
DWIDTH 14 0
BBX 12 25 1 0
BITMAP
1E00
0E00
0700
0380
0000
FFF0
FFF0
F000
F000
F000
F000
F000
F000
F000
FF80
FF80
F000
F000
F000
F000
F000
F000
FFF0
FFF0
FFF0
ENDCHAR
STARTCHAR 201
ENCODING 201
SWIDTH 1008 0
DWIDTH 14 0
BBX 12 25 1 0
BITMAP
0380
0700
0F00
0E00
1800
FFF0
FFF0
F000
F000
F000
F000
F000
F000
F000
FF80
FF80
F000
F000
F000
F000
F000
F000
FFF0
FFF0
FFF0
ENDCHAR
STARTCHAR 202
ENCODING 202
SWIDTH 1008 0
DWIDTH 14 0
BBX 12 25 1 0
BITMAP
0F00
0F80
1F80
39C0
0000
FFF0
FFF0
F000
F000
F000
F000
F000
F000
F000
FF80
FF80
F000
F000
F000
F000
F000
F000
FFF0
FFF0
FFF0
ENDCHAR
STARTCHAR 203
ENCODING 203
SWIDTH 1008 0
DWIDTH 14 0
BBX 12 25 1 0
BITMAP
1980
1F80
1F80
0000
0000
FFF0
FFF0
F000
F000
F000
F000
F000
F000
F000
FF80
FF80
F000
F000
F000
F000
F000
F000
FFF0
FFF0
FFF0
ENDCHAR
STARTCHAR 204
ENCODING 204
SWIDTH 1008 0
DWIDTH 14 0
BBX 6 25 4 0
BITMAP
F0
70
38
1C
00
78
78
78
78
78
78
78
78
78
78
78
78
78
78
78
78
78
78
78
78
ENDCHAR
STARTCHAR 205
ENCODING 205
SWIDTH 1008 0
DWIDTH 14 0
BBX 6 25 4 0
BITMAP
1C
38
78
70
C0
78
78
78
78
78
78
78
78
78
78
78
78
78
78
78
78
78
78
78
78
ENDCHAR
STARTCHAR 206
ENCODING 206
SWIDTH 1008 0
DWIDTH 14 0
BBX 8 25 3 0
BITMAP
3C
3E
7E
E7
00
3C
3C
3C
3C
3C
3C
3C
3C
3C
3C
3C
3C
3C
3C
3C
3C
3C
3C
3C
3C
ENDCHAR
STARTCHAR 207
ENCODING 207
SWIDTH 1008 0
DWIDTH 14 0
BBX 6 25 4 0
BITMAP
CC
FC
FC
00
00
78
78
78
78
78
78
78
78
78
78
78
78
78
78
78
78
78
78
78
78
ENDCHAR
STARTCHAR 208
ENCODING 208
SWIDTH 1008 0
DWIDTH 14 0
BBX 0 0 0 0
BITMAP
ENDCHAR
STARTCHAR 209
ENCODING 209
SWIDTH 1008 0
DWIDTH 14 0
BBX 0 0 0 0
BITMAP
ENDCHAR
STARTCHAR 210
ENCODING 210
SWIDTH 1008 0
DWIDTH 14 0
BBX 12 25 1 0
BITMAP
1E00
0E00
0700
0380
0000
1F80
3FC0
79E0
70E0
F0F0
F0F0
F0F0
F0F0
F0F0
F0F0
F0F0
F0F0
F0F0
F0F0
F0F0
F0F0
78E0
7FE0
3FC0
1F80
ENDCHAR
STARTCHAR 211
ENCODING 211
SWIDTH 1008 0
DWIDTH 14 0
BBX 12 25 1 0
BITMAP
0380
0700
0F00
0E00
1800
1F80
3FC0
79E0
70E0
F0F0
F0F0
F0F0
F0F0
F0F0
F0F0
F0F0
F0F0
F0F0
F0F0
F0F0
F0F0
78E0
7FE0
3FC0
1F80
ENDCHAR
STARTCHAR 212
ENCODING 212
SWIDTH 1008 0
DWIDTH 14 0
BBX 12 25 1 0
BITMAP
0F00
0F80
1F80
39C0
0000
1F80
3FC0
79E0
70E0
F0F0
F0F0
F0F0
F0F0
F0F0
F0F0
F0F0
F0F0
F0F0
F0F0
F0F0
F0F0
78E0
7FE0
3FC0
1F80
ENDCHAR
STARTCHAR 213
ENCODING 213
SWIDTH 1008 0
DWIDTH 14 0
BBX 12 20 1 0
BITMAP
1F80
3FC0
79E0
70E0
F0F0
F0F0
F0F0
F0F0
F0F0
F0F0
F0F0
F0F0
F0F0
F0F0
F0F0
F0F0
78E0
7FE0
3FC0
1F80
ENDCHAR
STARTCHAR 214
ENCODING 214
SWIDTH 1008 0
DWIDTH 14 0
BBX 12 25 1 0
BITMAP
1980
1F80
1F80
0000
0000
1F80
3FC0
79E0
70E0
F0F0
F0F0
F0F0
F0F0
F0F0
F0F0
F0F0
F0F0
F0F0
F0F0
F0F0
F0F0
78E0
7FE0
3FC0
1F80
ENDCHAR
STARTCHAR 215
ENCODING 215
SWIDTH 1008 0
DWIDTH 14 0
BBX 0 0 0 0
BITMAP
ENDCHAR
STARTCHAR 216
ENCODING 216
SWIDTH 1008 0
DWIDTH 14 0
BBX 0 0 0 0
BITMAP
ENDCHAR
STARTCHAR 217
ENCODING 217
SWIDTH 1008 0
DWIDTH 14 0
BBX 12 25 1 0
BITMAP
1E00
0E00
0700
0380
0000
F0F0
F0F0
F0F0
F0F0
F0F0
F0F0
F0F0
F0F0
F0F0
F0F0
F0F0
F0F0
F0F0
F0F0
F0F0
F0F0
78E0
7FE0
3FC0
1F80
ENDCHAR
STARTCHAR 218
ENCODING 218
SWIDTH 1008 0
DWIDTH 14 0
BBX 12 25 1 0
BITMAP
0380
0700
0F00
0E00
1800
F0F0
F0F0
F0F0
F0F0
F0F0
F0F0
F0F0
F0F0
F0F0
F0F0
F0F0
F0F0
F0F0
F0F0
F0F0
F0F0
78E0
7FE0
3FC0
1F80
ENDCHAR
STARTCHAR 219
ENCODING 219
SWIDTH 1008 0
DWIDTH 14 0
BBX 12 25 1 0
BITMAP
0F00
0F80
1F80
39C0
0000
F0F0
F0F0
F0F0
F0F0
F0F0
F0F0
F0F0
F0F0
F0F0
F0F0
F0F0
F0F0
F0F0
F0F0
F0F0
F0F0
78E0
7FE0
3FC0
1F80
ENDCHAR
STARTCHAR 220
ENCODING 220
SWIDTH 1008 0
DWIDTH 14 0
BBX 12 25 1 0
BITMAP
1980
1F80
1F80
0000
0000
F0F0
F0F0
F0F0
F0F0
F0F0
F0F0
F0F0
F0F0
F0F0
F0F0
F0F0
F0F0
F0F0
F0F0
F0F0
F0F0
78E0
7FE0
3FC0
1F80
ENDCHAR
STARTCHAR 221
ENCODING 221
SWIDTH 1008 0
DWIDTH 14 0
BBX 0 0 0 0
BITMAP
ENDCHAR
STARTCHAR 222
ENCODING 222
SWIDTH 1008 0
DWIDTH 14 0
BBX 0 0 0 0
BITMAP
ENDCHAR
STARTCHAR 223
ENCODING 223
SWIDTH 1008 0
DWIDTH 14 0
BBX 12 21 1 0
BITMAP
0E00
3F80
7FC0
7BC0
F1C0
F1C0
F3C0
FFC0
FFC0
F3E0
F0E0
F0F0
F0F0
F0F0
F0F0
F0F0
F0F0
F0E0
FFE0
FFC0
FF80
ENDCHAR
STARTCHAR 224
ENCODING 224
SWIDTH 1080 0
DWIDTH 15 0
BBX 13 21 1 0
BITMAP
1E00
0E00
0700
0780
0000
0000
1FC0
3FE0
79E0
78F0
78F0
00F0
1FF0
3FF0
7FF0
F0F0
F0F0
F0F0
7FF8
3FF8
1FB8
ENDCHAR
STARTCHAR 225
ENCODING 225
SWIDTH 1080 0
DWIDTH 15 0
BBX 13 21 1 0
BITMAP
0780
0700
0E00
1E00
0000
0000
1FC0
3FE0
79E0
78F0
78F0
00F0
1FF0
3FF0
7FF0
F0F0
F0F0
F0F0
7FF8
3FF8
1FB8
ENDCHAR
STARTCHAR 226
ENCODING 226
SWIDTH 1080 0
DWIDTH 15 0
BBX 13 21 1 0
BITMAP
0E00
1F00
3F80
3B80
60C0
0000
1FC0
3FE0
79E0
78F0
78F0
00F0
1FF0
3FF0
7FF0
F0F0
F0F0
F0F0
7FF8
3FF8
1FB8
ENDCHAR
STARTCHAR 227
ENCODING 227
SWIDTH 1008 0
DWIDTH 14 0
BBX 0 0 0 0
BITMAP
ENDCHAR
STARTCHAR 228
ENCODING 228
SWIDTH 1080 0
DWIDTH 15 0
BBX 13 20 1 0
BITMAP
1F80
1F80
1F80
0000
0000
1FC0
3FE0
79E0
78F0
78F0
00F0
1FF0
3FF0
7FF0
F0F0
F0F0
F0F0
7FF8
3FF8
1FB8
ENDCHAR
STARTCHAR 229
ENCODING 229
SWIDTH 1008 0
DWIDTH 14 0
BBX 0 0 0 0
BITMAP
ENDCHAR
STARTCHAR 230
ENCODING 230
SWIDTH 1368 0
DWIDTH 19 0
BBX 17 15 1 0
BITMAP
3FFE00
7FFF00
7BEF80
F1C780
01C780
01C780
3FFF80
7FFF80
7FFF80
F1C000
F1C780
F3E780
7FFF00
7FFF00
3E7C00
ENDCHAR
STARTCHAR 231
ENCODING 231
SWIDTH 1008 0
DWIDTH 14 0
BBX 12 19 1 -4
BITMAP
1F80
3FC0
7FE0
70E0
F0F0
F000
F000
F000
F000
F000
F0F0
70E0
7FE0
3FC0
1F80
0F00
3F00
3F00
3F00
ENDCHAR
STARTCHAR 232
ENCODING 232
SWIDTH 1008 0
DWIDTH 14 0
BBX 12 21 1 0
BITMAP
1E00
0E00
0700
0780
0000
0000
1F80
3FE0
79E0
70F0
F0F0
F0F0
FFF0
FFF0
FFF0
F000
F000
78E0
7FE0
3FC0
1F80
ENDCHAR
STARTCHAR 233
ENCODING 233
SWIDTH 1008 0
DWIDTH 14 0
BBX 12 21 1 0
BITMAP
0780
0700
0E00
1E00
0000
0000
1F80
3FE0
79E0
70F0
F0F0
F0F0
FFF0
FFF0
FFF0
F000
F000
78E0
7FE0
3FC0
1F80
ENDCHAR
STARTCHAR 234
ENCODING 234
SWIDTH 1008 0
DWIDTH 14 0
BBX 12 21 1 0
BITMAP
0F00
0F80
1F80
39C0
0000
0000
1F80
3FE0
79E0
70F0
F0F0
F0F0
FFF0
FFF0
FFF0
F000
F000
78E0
7FE0
3FC0
1F80
ENDCHAR
STARTCHAR 235
ENCODING 235
SWIDTH 1008 0
DWIDTH 14 0
BBX 12 20 1 0
BITMAP
1F80
1F80
1F80
0000
0000
1F80
3FE0
79E0
70F0
F0F0
F0F0
FFF0
FFF0
FFF0
F000
F000
78E0
7FE0
3FC0
1F80
ENDCHAR
STARTCHAR 236
ENCODING 236
SWIDTH 648 0
DWIDTH 9 0
BBX 6 21 1 0
BITMAP
E0
70
78
38
0C
00
70
70
70
70
70
70
70
70
70
70
70
70
7C
3C
1C
ENDCHAR
STARTCHAR 237
ENCODING 237
SWIDTH 648 0
DWIDTH 9 0
BBX 7 21 1 0
BITMAP
1E
3C
38
70
C0
00
70
70
70
70
70
70
70
70
70
70
70
70
7C
3C
1C
ENDCHAR
STARTCHAR 238
ENCODING 238
SWIDTH 648 0
DWIDTH 9 0
BBX 8 21 0 0
BITMAP
3C
7C
7E
EE
83
00
38
38
38
38
38
38
38
38
38
38
38
3C
3E
1E
0E
ENDCHAR
STARTCHAR 239
ENCODING 239
SWIDTH 648 0
DWIDTH 9 0
BBX 7 21 1 0
BITMAP
6C
FE
FC
00
00
00
78
78
78
78
78
78
78
78
78
78
78
78
7C
3C
1C
ENDCHAR
STARTCHAR 240
ENCODING 240
SWIDTH 1008 0
DWIDTH 14 0
BBX 0 0 0 0
BITMAP
ENDCHAR
STARTCHAR 241
ENCODING 241
SWIDTH 1008 0
DWIDTH 14 0
BBX 0 0 0 0
BITMAP
ENDCHAR
STARTCHAR 242
ENCODING 242
SWIDTH 1008 0
DWIDTH 14 0
BBX 12 25 1 0
BITMAP
1C00
1E00
0F00
0700
0180
0000
0000
0000
0000
0000
1F80
3FE0
79E0
70F0
F0F0
F0F0
F0F0
F0F0
F0F0
F0F0
F0F0
79E0
7FE0
3FC0
1F80
ENDCHAR
STARTCHAR 243
ENCODING 243
SWIDTH 1008 0
DWIDTH 14 0
BBX 12 21 1 0
BITMAP
0780
0700
0E00
1E00
0000
0000
1F80
3FE0
79E0
70F0
F0F0
F0F0
F0F0
F0F0
F0F0
F0F0
F0F0
79E0
7FE0
3FC0
1F80
ENDCHAR
STARTCHAR 244
ENCODING 244
SWIDTH 1008 0
DWIDTH 14 0
BBX 12 21 1 0
BITMAP
0F00
0F80
1F80
39C0
0000
0000
1F80
3FE0
79E0
70F0
F0F0
F0F0
F0F0
F0F0
F0F0
F0F0
F0F0
79E0
7FE0
3FC0
1F80
ENDCHAR
STARTCHAR 245
ENCODING 245
SWIDTH 1008 0
DWIDTH 14 0
BBX 12 15 1 0
BITMAP
1F80
3FE0
79E0
70F0
F0F0
F0F0
F0F0
F0F0
F0F0
F0F0
F0F0
79E0
7FE0
3FC0
1F80
ENDCHAR
STARTCHAR 246
ENCODING 246
SWIDTH 1008 0
DWIDTH 14 0
BBX 12 20 1 0
BITMAP
1F80
1F80
1F80
0000
0000
1F80
3FE0
79E0
70F0
F0F0
F0F0
F0F0
F0F0
F0F0
F0F0
F0F0
79E0
7FE0
3FC0
1F80
ENDCHAR
STARTCHAR 247
ENCODING 247
SWIDTH 1008 0
DWIDTH 14 0
BBX 8 12 3 2
BITMAP
18
3C
38
00
00
FF
FF
FF
00
18
3C
38
ENDCHAR
STARTCHAR 248
ENCODING 248
SWIDTH 1008 0
DWIDTH 14 0
BBX 12 21 1 0
BITMAP
06F0
3FE0
7FE0
79E0
F1F0
F3F0
F3F0
F7F0
F7F0
F7F0
FFF0
FFF0
FEF0
FEF0
FCF0
FCF0
FCF0
79E0
7FE0
7FC0
FF80
ENDCHAR
STARTCHAR 249
ENCODING 249
SWIDTH 1008 0
DWIDTH 14 0
BBX 12 21 1 0
BITMAP
1E00
0E00
0700
0780
0000
0000
F0F0
F0F0
F0F0
F0F0
F0F0
F0F0
F0F0
F0F0
F0F0
F0F0
F0F0
78F0
7FF0
3FF0
1FF0
ENDCHAR
STARTCHAR 250
ENCODING 250
SWIDTH 1008 0
DWIDTH 14 0
BBX 12 21 1 0
BITMAP
0780
0700
0E00
1E00
0000
0000
F0F0
F0F0
F0F0
F0F0
F0F0
F0F0
F0F0
F0F0
F0F0
F0F0
F0F0
78F0
7FF0
3FF0
1FF0
ENDCHAR
STARTCHAR 251
ENCODING 251
SWIDTH 1008 0
DWIDTH 14 0
BBX 12 21 1 0
BITMAP
0F00
0F80
1F80
39C0
0000
0000
F0F0
F0F0
F0F0
F0F0
F0F0
F0F0
F0F0
F0F0
F0F0
F0F0
F0F0
78F0
7FF0
3FF0
1FF0
ENDCHAR
STARTCHAR 252
ENCODING 252
SWIDTH 1008 0
DWIDTH 14 0
BBX 12 20 1 0
BITMAP
1F80
1F80
1F80
0000
0000
F0F0
F0F0
F0F0
F0F0
F0F0
F0F0
F0F0
F0F0
F0F0
F0F0
F0F0
78F0
7FF0
3FF0
1FF0
ENDCHAR
STARTCHAR 253
ENCODING 253
SWIDTH 1008 0
DWIDTH 14 0
BBX 0 0 0 0
BITMAP
ENDCHAR
STARTCHAR 254
ENCODING 254
SWIDTH 1008 0
DWIDTH 14 0
BBX 0 0 0 0
BITMAP
ENDCHAR
STARTCHAR 255
ENCODING 255
SWIDTH 1008 0
DWIDTH 14 0
BBX 0 0 0 0
BITMAP
ENDCHAR
ENDFONT
